<svg width="1280" height="640" viewBox="0 0 1280 640" xmlns="http://www.w3.org/2000/svg" role="img" aria-labelledby="title desc">
  <title id="title">CodePatchbay social preview</title>
  <desc id="desc">A local handoff runner connecting Codex planning, Claude Code execution, and Codex verification.</desc>
  <defs>
    <linearGradient id="bg" x1="0" y1="0" x2="1" y2="1">
      <stop offset="0%" stop-color="#101820"/>
      <stop offset="48%" stop-color="#14261f"/>
      <stop offset="100%" stop-color="#332415"/>
    </linearGradient>
    <radialGradient id="glow" cx="52%" cy="50%" r="60%">
      <stop offset="0%" stop-color="#f8c14a" stop-opacity="0.22"/>
      <stop offset="55%" stop-color="#5be49b" stop-opacity="0.08"/>
      <stop offset="100%" stop-color="#000000" stop-opacity="0"/>
    </radialGradient>
    <filter id="shadow" x="-20%" y="-20%" width="140%" height="140%">
      <feDropShadow dx="0" dy="18" stdDeviation="22" flood-color="#000000" flood-opacity="0.32"/>
    </filter>
    <style>
      .title { font: 800 82px Georgia, 'Times New Roman', serif; fill: #f8f0df; letter-spacing: -1px; }
      .tag { font: 500 28px ui-monospace, SFMono-Regular, Menlo, Consolas, monospace; fill: #bdd8cb; }
      .small { font: 500 22px ui-monospace, SFMono-Regular, Menlo, Consolas, monospace; fill: #91a79c; }
      .node-title { font: 700 28px ui-monospace, SFMono-Regular, Menlo, Consolas, monospace; fill: #101820; }
      .node-sub { font: 500 18px ui-monospace, SFMono-Regular, Menlo, Consolas, monospace; fill: #33443d; }
      .wire { fill: none; stroke: #f8c14a; stroke-width: 8; stroke-linecap: round; stroke-linejoin: round; }
      .wire2 { fill: none; stroke: #5be49b; stroke-width: 5; stroke-linecap: round; stroke-dasharray: 1 18; }
    </style>
  </defs>

  <rect width="1280" height="640" fill="url(#bg)"/>
  <rect width="1280" height="640" fill="url(#glow)"/>
  <path d="M0 560 C220 510 310 635 500 574 C690 512 720 432 915 476 C1055 508 1135 462 1280 404 L1280 640 L0 640 Z" fill="#0b1117" opacity="0.52"/>

  <text x="74" y="128" class="small">ALPHA / SOURCE-AVAILABLE / NON-COMMERCIAL</text>
  <text x="72" y="226" class="title">CodePatchbay</text>
  <text x="78" y="280" class="tag">Local handoff runner for Codex + Claude Code</text>

  <g filter="url(#shadow)">
    <rect x="92" y="382" width="250" height="116" rx="24" fill="#f8f0df"/>
    <text x="126" y="434" class="node-title">Codex</text>
    <text x="126" y="468" class="node-sub">plans</text>
  </g>

  <path class="wire" d="M350 440 C420 380 500 380 570 440"/>
  <path class="wire2" d="M354 468 C430 530 500 530 576 468"/>

  <g filter="url(#shadow)">
    <rect x="584" y="382" width="286" height="116" rx="24" fill="#5be49b"/>
    <text x="618" y="434" class="node-title">Claude Code</text>
    <text x="618" y="468" class="node-sub">executes</text>
  </g>

  <path class="wire" d="M878 440 C955 380 1030 380 1106 440"/>
  <path class="wire2" d="M882 468 C956 530 1032 530 1108 468"/>

  <g filter="url(#shadow)">
    <rect x="914" y="382" width="274" height="116" rx="24" fill="#f8c14a"/>
    <text x="948" y="434" class="node-title">Codex</text>
    <text x="948" y="468" class="node-sub">verifies diff</text>
  </g>

  <text x="76" y="572" class="small">Markdown handoffs + JSONL event log, stored locally for inspection.</text>
</svg>
